<?xml version="1.0" encoding="iso-8859-1"?>
<!-- Generator: Adobe Illustrator 23.0.1, SVG Export Plug-In . SVG Version: 6.00 Build 0)  -->
<svg version="1.1" id="Calque_1" xmlns="http://www.w3.org/2000/svg" xmlns:xlink="http://www.w3.org/1999/xlink" x="0px" y="0px"
	 viewBox="0 0 474.2 87.7" style="enable-background:new 0 0 474.2 87.7;" xml:space="preserve">
<title>yzimusic_logo</title>
<g>
	<g id="Calque_1-2">
		<path style="fill:#FFFFFF;" d="M49.9,61.3v25.4H26.4V61L0,16.8h24.9L39.1,41l14.4-24.2h22.8L49.9,61.3z"/>
		<path style="fill:#FFFFFF;" d="M124.7,70.2v16.5H72.6v-13l22.6-25.1H73.4V32.1h50.2v13L101,70.2H124.7z"/>
		<path style="fill:#FFFFFF;" d="M131.5,32.1h22.6v54.6h-22.6V32.1z"/>
		<path style="fill:#FFFFFF;" d="M227.2,86.7L227,54.8l-15.2,25.6h-10.4l-15.2-24.5v30.8h-21.5V16.8h19.4L206.9,54l22.2-37.2h19.4
			l0.2,69.9H227.2z"/>
		<path style="fill:#FFFFFF;" d="M319,32.1v54.6h-21.5v-5.2c-4.1,4.1-9.7,6.3-15.5,6.2c-13.1,0-23-7.7-23-25.5V32.1h22.6v26.3
			c0,7.8,2.7,10.4,7.1,10.4c3.9,0,7.7-2.9,7.7-11V32.1H319z"/>
		<path style="fill:#FFFFFF;" d="M325.6,82.3l6.2-14.9c5.8,3.2,12.4,4.9,19.1,4.9c5.5,0,7-1,7-2.6c0-5.6-31.5,1.9-31.5-20
			c0-10.3,9.6-18.7,28-18.7c8,0,16.5,1.5,22.3,4.5l-6.2,14.9c-4.8-2.7-10.3-4-15.8-4c-5.8,0-7.4,1.3-7.4,2.6
			c0,5.7,31.4-1.7,31.4,20.2c0,9.9-9.3,18.5-28.3,18.5C341,87.7,331.2,85.5,325.6,82.3z"/>
		<path style="fill:#FFFFFF;" d="M385.4,32.1H408v54.6h-22.6V32.1z"/>
		<path style="fill:#FFFFFF;" d="M415.1,59.3c0-16.6,13.4-28.3,32.2-28.3c13.3,0,23.3,6.1,26.9,16.2l-17.5,8.6
			c-2.3-5.1-5.6-7.2-9.5-7.2c-5.1,0-9.3,3.6-9.3,10.7s4.2,10.8,9.3,10.8c3.9,0,7.2-2.1,9.5-7.2l17.5,8.6
			c-3.6,10.1-13.6,16.2-26.9,16.2C428.5,87.7,415.1,76,415.1,59.3z"/>
		<path style="fill:#FFFFFF;" d="M150.3,15.5c-0.7,0-1.3,0.6-1.3,1.3v9.5c-0.1,0.7,0.5,1.4,1.2,1.4c0.7,0.1,1.4-0.5,1.4-1.2
			c0-0.1,0-0.2,0-0.2v-9.5C151.7,16.1,151.1,15.5,150.3,15.5C150.4,15.5,150.3,15.5,150.3,15.5z"/>
		<path style="fill:#FFFFFF;" d="M157.5,16.1c0-1.7-0.3-3.4-0.9-5c-0.5-1.4-1.3-2.8-2.2-4c0.1-0.3,0.2-0.6,0.2-0.8
			c0-0.5-0.2-1-0.6-1.4c-1.5-1.5-3.2-2.7-5.2-3.5c-3.9-1.6-8.3-1.6-12.2,0c-1.9,0.8-3.7,2-5.2,3.5c-0.4,0.4-0.6,0.9-0.6,1.4
			c0,0.3,0.1,0.6,0.2,0.8c-0.9,1.2-1.7,2.6-2.2,4c-0.6,1.6-0.9,3.3-0.9,5v5.5c0,1.3,0.5,2.6,1.4,3.5c0.7,0.7,1.7,1.2,2.7,1.4v-9.8
			c-1,0.1-1.9,0.6-2.6,1.3v-1.9c0-2.9,1-5.7,2.7-8c0.2,0.1,0.4,0.1,0.6,0.1c0.5,0,1-0.2,1.3-0.5l0.1-0.1c1.1-1.1,2.4-2,3.9-2.6
			c3-1.2,6.3-1.2,9.2,0c1.5,0.6,2.8,1.5,3.9,2.6l0,0c0.4,0.4,0.9,0.6,1.4,0.6c0.2,0,0.4,0,0.6-0.1c0.8,1.1,1.5,2.2,1.9,3.5
			c0.5,1.5,0.8,3,0.8,4.5V18c-0.7-0.7-1.6-1.1-2.6-1.3v9.7c2.4-0.4,4.1-2.5,4.2-4.9L157.5,16.1L157.5,16.1z"/>
		<path style="fill:#FFFFFF;" d="M135.2,15.5c-0.7,0-1.3,0.6-1.3,1.3v9.5c-0.1,0.7,0.5,1.4,1.2,1.4c0.7,0.1,1.4-0.5,1.4-1.2
			c0-0.1,0-0.2,0-0.2v-9.5C136.5,16.1,135.9,15.5,135.2,15.5L135.2,15.5z"/>
		<path style="fill:#1D1D1B;" d="M404.2,15.3c-0.7,0-1.3,0.6-1.3,1.3v9.5c0.1,0.7,0.7,1.3,1.4,1.2c0.6-0.1,1.2-0.6,1.2-1.2v-9.5
			C405.6,15.9,405,15.3,404.2,15.3C404.3,15.3,404.3,15.3,404.2,15.3z"/>
		<path style="fill:#1D1D1B;" d="M411.4,15.9c0-1.7-0.3-3.4-0.9-5.1c-0.5-1.4-1.3-2.8-2.2-4c0.1-0.3,0.2-0.5,0.2-0.8
			c0-0.5-0.2-1-0.6-1.4c-6.2-6.2-16.3-6.2-22.6,0C385,5,384.8,5.5,384.8,6c0,0.3,0.1,0.6,0.2,0.8c-0.9,1.2-1.7,2.6-2.2,4
			c-0.6,1.6-0.9,3.3-0.9,5.1v5.4c0,1.3,0.5,2.6,1.4,3.5c0.7,0.7,1.7,1.2,2.7,1.4v-9.7c-1,0.2-1.9,0.6-2.6,1.3v-1.9
			c0-1.6,0.3-3.1,0.8-4.6c0.5-1.3,1.1-2.4,1.9-3.5c0.2,0.1,0.4,0.1,0.6,0.1c0.5,0,1-0.2,1.3-0.5l0.1-0.1c1.1-1.1,2.4-2,3.9-2.6
			c3-1.2,6.3-1.2,9.2,0c1.5,0.6,2.8,1.5,3.9,2.6l0,0c0.4,0.4,0.9,0.6,1.4,0.6c0.2,0,0.4,0,0.6-0.1c0.8,1.1,1.4,2.2,1.9,3.5
			c0.5,1.5,0.8,3,0.8,4.6v1.9c-0.7-0.7-1.6-1.1-2.6-1.3v9.7c2.4-0.4,4.2-2.4,4.1-4.9L411.4,15.9L411.4,15.9z"/>
		<path style="fill:#1D1D1B;" d="M389.1,15.3c-0.7,0-1.3,0.6-1.3,1.3v9.5c0.1,0.7,0.7,1.3,1.4,1.2c0.6-0.1,1.2-0.6,1.2-1.2v-9.5
			C390.4,15.9,389.8,15.3,389.1,15.3z"/>
		<path style="fill:#1D1D1B;" d="M404.2,15.3c-0.7,0-1.3,0.6-1.3,1.3v9.5c0.1,0.7,0.7,1.3,1.4,1.2c0.6-0.1,1.2-0.6,1.2-1.2v-9.5
			C405.6,15.9,405,15.3,404.2,15.3C404.3,15.3,404.3,15.3,404.2,15.3z"/>
		<path style="fill:#1D1D1B;" d="M411.4,15.9c0-1.7-0.3-3.4-0.9-5.1c-0.5-1.4-1.3-2.8-2.2-4c0.1-0.3,0.2-0.5,0.2-0.8
			c0-0.5-0.2-1-0.6-1.4c-6.2-6.2-16.3-6.2-22.6,0C385,5,384.8,5.5,384.8,6c0,0.3,0.1,0.6,0.2,0.8c-0.9,1.2-1.7,2.6-2.2,4
			c-0.6,1.6-0.9,3.3-0.9,5.1v5.4c0,1.3,0.5,2.6,1.4,3.5c0.7,0.7,1.7,1.2,2.7,1.4v-9.7c-1,0.2-1.9,0.6-2.6,1.3v-1.9
			c0-1.6,0.3-3.1,0.8-4.6c0.5-1.3,1.1-2.4,1.9-3.5c0.2,0.1,0.4,0.1,0.6,0.1c0.5,0,1-0.2,1.3-0.5l0.1-0.1c1.1-1.1,2.4-2,3.9-2.6
			c3-1.2,6.3-1.2,9.2,0c1.5,0.6,2.8,1.5,3.9,2.6l0,0c0.4,0.4,0.9,0.6,1.4,0.6c0.2,0,0.4,0,0.6-0.1c0.8,1.1,1.4,2.2,1.9,3.5
			c0.5,1.5,0.8,3,0.8,4.6v1.9c-0.7-0.7-1.6-1.1-2.6-1.3v9.7c2.4-0.4,4.2-2.4,4.1-4.9L411.4,15.9L411.4,15.9z"/>
		<path style="fill:#1D1D1B;" d="M389.1,15.3c-0.7,0-1.3,0.6-1.3,1.3v9.5c0.1,0.7,0.7,1.3,1.4,1.2c0.6-0.1,1.2-0.6,1.2-1.2v-9.5
			C390.4,15.9,389.8,15.3,389.1,15.3z"/>
		<path style="fill:#1D1D1B;" d="M404.2,15.3c-0.7,0-1.3,0.6-1.3,1.3v9.5c0.1,0.7,0.7,1.3,1.4,1.2c0.6-0.1,1.2-0.6,1.2-1.2v-9.5
			C405.6,15.9,405,15.3,404.2,15.3C404.3,15.3,404.3,15.3,404.2,15.3z"/>
		<path style="fill:#1D1D1B;" d="M411.4,15.9c0-1.7-0.3-3.4-0.9-5.1c-0.5-1.4-1.3-2.8-2.2-4c0.1-0.3,0.2-0.5,0.2-0.8
			c0-0.5-0.2-1-0.6-1.4c-6.2-6.2-16.3-6.2-22.6,0C385,5,384.8,5.5,384.8,6c0,0.3,0.1,0.6,0.2,0.8c-0.9,1.2-1.7,2.6-2.2,4
			c-0.6,1.6-0.9,3.3-0.9,5.1v5.4c0,1.3,0.5,2.6,1.4,3.5c0.7,0.7,1.7,1.2,2.7,1.4v-9.7c-1,0.2-1.9,0.6-2.6,1.3v-1.9
			c0-1.6,0.3-3.1,0.8-4.6c0.5-1.3,1.1-2.4,1.9-3.5c0.2,0.1,0.4,0.1,0.6,0.1c0.5,0,1-0.2,1.3-0.5l0.1-0.1c1.1-1.1,2.4-2,3.9-2.6
			c3-1.2,6.3-1.2,9.2,0c1.5,0.6,2.8,1.5,3.9,2.6l0,0c0.4,0.4,0.9,0.6,1.4,0.6c0.2,0,0.4,0,0.6-0.1c0.8,1.1,1.4,2.2,1.9,3.5
			c0.5,1.5,0.8,3,0.8,4.6v1.9c-0.7-0.7-1.6-1.1-2.6-1.3v9.7c2.4-0.4,4.2-2.4,4.1-4.9L411.4,15.9L411.4,15.9z"/>
		<path style="fill:#1D1D1B;" d="M389.1,15.3c-0.7,0-1.3,0.6-1.3,1.3v9.5c0.1,0.7,0.7,1.3,1.4,1.2c0.6-0.1,1.2-0.6,1.2-1.2v-9.5
			C390.4,15.9,389.8,15.3,389.1,15.3z"/>
		<path style="fill:#1D1D1B;" d="M404.2,15.3c-0.7,0-1.3,0.6-1.3,1.3v9.5c0.1,0.7,0.7,1.3,1.4,1.2c0.6-0.1,1.2-0.6,1.2-1.2v-9.5
			C405.6,15.9,405,15.3,404.2,15.3C404.3,15.3,404.3,15.3,404.2,15.3z"/>
		<path style="fill:#1D1D1B;" d="M411.4,15.9c0-1.7-0.3-3.4-0.9-5.1c-0.5-1.4-1.3-2.8-2.2-4c0.1-0.3,0.2-0.5,0.2-0.8
			c0-0.5-0.2-1-0.6-1.4c-6.2-6.2-16.3-6.2-22.6,0C385,5,384.8,5.5,384.8,6c0,0.3,0.1,0.6,0.2,0.8c-0.9,1.2-1.7,2.6-2.2,4
			c-0.6,1.6-0.9,3.3-0.9,5.1v5.4c0,1.3,0.5,2.6,1.4,3.5c0.7,0.7,1.7,1.2,2.7,1.4v-9.7c-1,0.2-1.9,0.6-2.6,1.3v-1.9
			c0-1.6,0.3-3.1,0.8-4.6c0.5-1.3,1.1-2.4,1.9-3.5c0.2,0.1,0.4,0.1,0.6,0.1c0.5,0,1-0.2,1.3-0.5l0.1-0.1c1.1-1.1,2.4-2,3.9-2.6
			c3-1.2,6.3-1.2,9.2,0c1.5,0.6,2.8,1.5,3.9,2.6l0,0c0.4,0.4,0.9,0.6,1.4,0.6c0.2,0,0.4,0,0.6-0.1c0.8,1.1,1.4,2.2,1.9,3.5
			c0.5,1.5,0.8,3,0.8,4.6v1.9c-0.7-0.7-1.6-1.1-2.6-1.3v9.7c2.4-0.4,4.2-2.4,4.1-4.9L411.4,15.9L411.4,15.9z"/>
		<path style="fill:#1D1D1B;" d="M389.1,15.3c-0.7,0-1.3,0.6-1.3,1.3v9.5c0.1,0.7,0.7,1.3,1.4,1.2c0.6-0.1,1.2-0.6,1.2-1.2v-9.5
			C390.4,15.9,389.8,15.3,389.1,15.3z"/>
		<path style="fill:#1D1D1B;" d="M404.2,15.3c-0.7,0-1.3,0.6-1.3,1.3v9.5c0.1,0.7,0.7,1.3,1.4,1.2c0.6-0.1,1.2-0.6,1.2-1.2v-9.5
			C405.6,15.9,405,15.3,404.2,15.3C404.3,15.3,404.3,15.3,404.2,15.3z"/>
		<path style="fill:#1D1D1B;" d="M411.4,15.9c0-1.7-0.3-3.4-0.9-5.1c-0.5-1.4-1.3-2.8-2.2-4c0.1-0.3,0.2-0.5,0.2-0.8
			c0-0.5-0.2-1-0.6-1.4c-6.2-6.2-16.3-6.2-22.6,0C385,5,384.8,5.5,384.8,6c0,0.3,0.1,0.6,0.2,0.8c-0.9,1.2-1.7,2.6-2.2,4
			c-0.6,1.6-0.9,3.3-0.9,5.1v5.4c0,1.3,0.5,2.6,1.4,3.5c0.7,0.7,1.7,1.2,2.7,1.4v-9.7c-1,0.2-1.9,0.6-2.6,1.3v-1.9
			c0-1.6,0.3-3.1,0.8-4.6c0.5-1.3,1.1-2.4,1.9-3.5c0.2,0.1,0.4,0.1,0.6,0.1c0.5,0,1-0.2,1.3-0.5l0.1-0.1c1.1-1.1,2.4-2,3.9-2.6
			c3-1.2,6.3-1.2,9.2,0c1.5,0.6,2.8,1.5,3.9,2.6l0,0c0.4,0.4,0.9,0.6,1.4,0.6c0.2,0,0.4,0,0.6-0.1c0.8,1.1,1.4,2.2,1.9,3.5
			c0.5,1.5,0.8,3,0.8,4.6v1.9c-0.7-0.7-1.6-1.1-2.6-1.3v9.7c2.4-0.4,4.2-2.4,4.1-4.9L411.4,15.9L411.4,15.9z"/>
		<path style="fill:#1D1D1B;" d="M389.1,15.3c-0.7,0-1.3,0.6-1.3,1.3v9.5c0.1,0.7,0.7,1.3,1.4,1.2c0.6-0.1,1.2-0.6,1.2-1.2v-9.5
			C390.4,15.9,389.8,15.3,389.1,15.3z"/>
		<path style="fill:#1D1D1B;" d="M404.2,15.3c-0.7,0-1.3,0.6-1.3,1.3v9.5c0.1,0.7,0.7,1.3,1.4,1.2c0.6-0.1,1.2-0.6,1.2-1.2v-9.5
			C405.6,15.9,405,15.3,404.2,15.3C404.3,15.3,404.3,15.3,404.2,15.3z"/>
		<path style="fill:#1D1D1B;" d="M411.4,15.9c0-1.7-0.3-3.4-0.9-5.1c-0.5-1.4-1.3-2.8-2.2-4c0.1-0.3,0.2-0.5,0.2-0.8
			c0-0.5-0.2-1-0.6-1.4c-6.2-6.2-16.3-6.2-22.6,0C385,5,384.8,5.5,384.8,6c0,0.3,0.1,0.6,0.2,0.8c-0.9,1.2-1.7,2.6-2.2,4
			c-0.6,1.6-0.9,3.3-0.9,5.1v5.4c0,1.3,0.5,2.6,1.4,3.5c0.7,0.7,1.7,1.2,2.7,1.4v-9.7c-1,0.2-1.9,0.6-2.6,1.3v-1.9
			c0-1.6,0.3-3.1,0.8-4.6c0.5-1.3,1.1-2.4,1.9-3.5c0.2,0.1,0.4,0.1,0.6,0.1c0.5,0,1-0.2,1.3-0.5l0.1-0.1c1.1-1.1,2.4-2,3.9-2.6
			c3-1.2,6.3-1.2,9.2,0c1.5,0.6,2.8,1.5,3.9,2.6l0,0c0.4,0.4,0.9,0.6,1.4,0.6c0.2,0,0.4,0,0.6-0.1c0.8,1.1,1.4,2.2,1.9,3.5
			c0.5,1.5,0.8,3,0.8,4.6v1.9c-0.7-0.7-1.6-1.1-2.6-1.3v9.7c2.4-0.4,4.2-2.4,4.1-4.9L411.4,15.9L411.4,15.9z"/>
		<path style="fill:#1D1D1B;" d="M389.1,15.3c-0.7,0-1.3,0.6-1.3,1.3v9.5c0.1,0.7,0.7,1.3,1.4,1.2c0.6-0.1,1.2-0.6,1.2-1.2v-9.5
			C390.4,15.9,389.8,15.3,389.1,15.3z"/>
		<path style="fill:#1D1D1B;" d="M404.2,15.3c-0.7,0-1.3,0.6-1.3,1.3v9.5c0.1,0.7,0.7,1.3,1.4,1.2c0.6-0.1,1.2-0.6,1.2-1.2v-9.5
			C405.6,15.9,405,15.3,404.2,15.3C404.3,15.3,404.3,15.3,404.2,15.3z"/>
		<path style="fill:#1D1D1B;" d="M411.4,15.9c0-1.7-0.3-3.4-0.9-5.1c-0.5-1.4-1.3-2.8-2.2-4c0.1-0.3,0.2-0.5,0.2-0.8
			c0-0.5-0.2-1-0.6-1.4c-6.2-6.2-16.3-6.2-22.6,0C385,5,384.8,5.5,384.8,6c0,0.3,0.1,0.6,0.2,0.8c-0.9,1.2-1.7,2.6-2.2,4
			c-0.6,1.6-0.9,3.3-0.9,5.1v5.4c0,1.3,0.5,2.6,1.4,3.5c0.7,0.7,1.7,1.2,2.7,1.4v-9.7c-1,0.2-1.9,0.6-2.6,1.3v-1.9
			c0-1.6,0.3-3.1,0.8-4.6c0.5-1.3,1.1-2.4,1.9-3.5c0.2,0.1,0.4,0.1,0.6,0.1c0.5,0,1-0.2,1.3-0.5l0.1-0.1c1.1-1.1,2.4-2,3.9-2.6
			c3-1.2,6.3-1.2,9.2,0c1.5,0.6,2.8,1.5,3.9,2.6l0,0c0.4,0.4,0.9,0.6,1.4,0.6c0.2,0,0.4,0,0.6-0.1c0.8,1.1,1.4,2.2,1.9,3.5
			c0.5,1.5,0.8,3,0.8,4.6v1.9c-0.7-0.7-1.6-1.1-2.6-1.3v9.7c2.4-0.4,4.2-2.4,4.1-4.9L411.4,15.9L411.4,15.9z"/>
		<path style="fill:#1D1D1B;" d="M389.1,15.3c-0.7,0-1.3,0.6-1.3,1.3v9.5c0.1,0.7,0.7,1.3,1.4,1.2c0.6-0.1,1.2-0.6,1.2-1.2v-9.5
			C390.4,15.9,389.8,15.3,389.1,15.3z"/>
		<path style="fill:#1D1D1B;" d="M404.2,15.3c-0.7,0-1.3,0.6-1.3,1.3v9.5c0.1,0.7,0.7,1.3,1.4,1.2c0.6-0.1,1.2-0.6,1.2-1.2v-9.5
			C405.6,15.9,405,15.3,404.2,15.3C404.3,15.3,404.3,15.3,404.2,15.3z"/>
		<path style="fill:#1D1D1B;" d="M411.4,15.9c0-1.7-0.3-3.4-0.9-5.1c-0.5-1.4-1.3-2.8-2.2-4c0.1-0.3,0.2-0.5,0.2-0.8
			c0-0.5-0.2-1-0.6-1.4c-6.2-6.2-16.3-6.2-22.6,0C385,5,384.8,5.5,384.8,6c0,0.3,0.1,0.6,0.2,0.8c-0.9,1.2-1.7,2.6-2.2,4
			c-0.6,1.6-0.9,3.3-0.9,5.1v5.4c0,1.3,0.5,2.6,1.4,3.5c0.7,0.7,1.7,1.2,2.7,1.4v-9.7c-1,0.2-1.9,0.6-2.6,1.3v-1.9
			c0-1.6,0.3-3.1,0.8-4.6c0.5-1.3,1.1-2.4,1.9-3.5c0.2,0.1,0.4,0.1,0.6,0.1c0.5,0,1-0.2,1.3-0.5l0.1-0.1c1.1-1.1,2.4-2,3.9-2.6
			c3-1.2,6.3-1.2,9.2,0c1.5,0.6,2.8,1.5,3.9,2.6l0,0c0.4,0.4,0.9,0.6,1.4,0.6c0.2,0,0.4,0,0.6-0.1c0.8,1.1,1.4,2.2,1.9,3.5
			c0.5,1.5,0.8,3,0.8,4.6v1.9c-0.7-0.7-1.6-1.1-2.6-1.3v9.7c2.4-0.4,4.2-2.4,4.1-4.9L411.4,15.9L411.4,15.9z"/>
		<path style="fill:#1D1D1B;" d="M389.1,15.3c-0.7,0-1.3,0.6-1.3,1.3v9.5c0.1,0.7,0.7,1.3,1.4,1.2c0.6-0.1,1.2-0.6,1.2-1.2v-9.5
			C390.4,15.9,389.8,15.3,389.1,15.3z"/>
		<path style="fill:#1D1D1B;" d="M404.2,15.3c-0.7,0-1.3,0.6-1.3,1.3v9.5c0.1,0.7,0.7,1.3,1.4,1.2c0.6-0.1,1.2-0.6,1.2-1.2v-9.5
			C405.6,15.9,405,15.3,404.2,15.3C404.3,15.3,404.3,15.3,404.2,15.3z"/>
		<path style="fill:#1D1D1B;" d="M411.4,15.9c0-1.7-0.3-3.4-0.9-5.1c-0.5-1.4-1.3-2.8-2.2-4c0.1-0.3,0.2-0.5,0.2-0.8
			c0-0.5-0.2-1-0.6-1.4c-6.2-6.2-16.3-6.2-22.6,0C385,5,384.8,5.5,384.8,6c0,0.3,0.1,0.6,0.2,0.8c-0.9,1.2-1.7,2.6-2.2,4
			c-0.6,1.6-0.9,3.3-0.9,5.1v5.4c0,1.3,0.5,2.6,1.4,3.5c0.7,0.7,1.7,1.2,2.7,1.4v-9.7c-1,0.2-1.9,0.6-2.6,1.3v-1.9
			c0-1.6,0.3-3.1,0.8-4.6c0.5-1.3,1.1-2.4,1.9-3.5c0.2,0.1,0.4,0.1,0.6,0.1c0.5,0,1-0.2,1.3-0.5l0.1-0.1c1.1-1.1,2.4-2,3.9-2.6
			c3-1.2,6.3-1.2,9.2,0c1.5,0.6,2.8,1.5,3.9,2.6l0,0c0.4,0.4,0.9,0.6,1.4,0.6c0.2,0,0.4,0,0.6-0.1c0.8,1.1,1.4,2.2,1.9,3.5
			c0.5,1.5,0.8,3,0.8,4.6v1.9c-0.7-0.7-1.6-1.1-2.6-1.3v9.7c2.4-0.4,4.2-2.4,4.1-4.9L411.4,15.9L411.4,15.9z"/>
		<path style="fill:#1D1D1B;" d="M389.1,15.3c-0.7,0-1.3,0.6-1.3,1.3v9.5c0.1,0.7,0.7,1.3,1.4,1.2c0.6-0.1,1.2-0.6,1.2-1.2v-9.5
			C390.4,15.9,389.8,15.3,389.1,15.3z"/>
		<path style="fill:#1D1D1B;" d="M404.2,15.3c-0.7,0-1.3,0.6-1.3,1.3v9.5c0.1,0.7,0.7,1.3,1.4,1.2c0.6-0.1,1.2-0.6,1.2-1.2v-9.5
			C405.6,15.9,405,15.3,404.2,15.3C404.3,15.3,404.3,15.3,404.2,15.3z"/>
		<path style="fill:#1D1D1B;" d="M411.4,15.9c0-1.7-0.3-3.4-0.9-5.1c-0.5-1.4-1.3-2.8-2.2-4c0.1-0.3,0.2-0.5,0.2-0.8
			c0-0.5-0.2-1-0.6-1.4c-6.2-6.2-16.3-6.2-22.6,0C385,5,384.8,5.5,384.8,6c0,0.3,0.1,0.6,0.2,0.8c-0.9,1.2-1.7,2.6-2.2,4
			c-0.6,1.6-0.9,3.3-0.9,5.1v5.4c0,1.3,0.5,2.6,1.4,3.5c0.7,0.7,1.7,1.2,2.7,1.4v-9.7c-1,0.2-1.9,0.6-2.6,1.3v-1.9
			c0-1.6,0.3-3.1,0.8-4.6c0.5-1.3,1.1-2.4,1.9-3.5c0.2,0.1,0.4,0.1,0.6,0.1c0.5,0,1-0.2,1.3-0.5l0.1-0.1c1.1-1.1,2.4-2,3.9-2.6
			c3-1.2,6.3-1.2,9.2,0c1.5,0.6,2.8,1.5,3.9,2.6l0,0c0.4,0.4,0.9,0.6,1.4,0.6c0.2,0,0.4,0,0.6-0.1c0.8,1.1,1.4,2.2,1.9,3.5
			c0.5,1.5,0.8,3,0.8,4.6v1.9c-0.7-0.7-1.6-1.1-2.6-1.3v9.7c2.4-0.4,4.2-2.4,4.1-4.9L411.4,15.9L411.4,15.9z"/>
		<path style="fill:#1D1D1B;" d="M389.1,15.3c-0.7,0-1.3,0.6-1.3,1.3v9.5c0.1,0.7,0.7,1.3,1.4,1.2c0.6-0.1,1.2-0.6,1.2-1.2v-9.5
			C390.4,15.9,389.8,15.3,389.1,15.3z"/>
		<path style="fill:#1D1D1B;" d="M404.2,15.3c-0.7,0-1.3,0.6-1.3,1.3v9.5c0.1,0.7,0.7,1.3,1.4,1.2c0.6-0.1,1.2-0.6,1.2-1.2v-9.5
			C405.6,15.9,405,15.3,404.2,15.3C404.3,15.3,404.3,15.3,404.2,15.3z"/>
		<path style="fill:#1D1D1B;" d="M411.4,15.9c0-1.7-0.3-3.4-0.9-5.1c-0.5-1.4-1.3-2.8-2.2-4c0.1-0.3,0.2-0.5,0.2-0.8
			c0-0.5-0.2-1-0.6-1.4c-6.2-6.2-16.3-6.2-22.6,0C385,5,384.8,5.5,384.8,6c0,0.3,0.1,0.6,0.2,0.8c-0.9,1.2-1.7,2.6-2.2,4
			c-0.6,1.6-0.9,3.3-0.9,5.1v5.4c0,1.3,0.5,2.6,1.4,3.5c0.7,0.7,1.7,1.2,2.7,1.4v-9.7c-1,0.2-1.9,0.6-2.6,1.3v-1.9
			c0-1.6,0.3-3.1,0.8-4.6c0.5-1.3,1.1-2.4,1.9-3.5c0.2,0.1,0.4,0.1,0.6,0.1c0.5,0,1-0.2,1.3-0.5l0.1-0.1c1.1-1.1,2.4-2,3.9-2.6
			c3-1.2,6.3-1.2,9.2,0c1.5,0.6,2.8,1.5,3.9,2.6l0,0c0.4,0.4,0.9,0.6,1.4,0.6c0.2,0,0.4,0,0.6-0.1c0.8,1.1,1.4,2.2,1.9,3.5
			c0.5,1.5,0.8,3,0.8,4.6v1.9c-0.7-0.7-1.6-1.1-2.6-1.3v9.7c2.4-0.4,4.2-2.4,4.1-4.9L411.4,15.9L411.4,15.9z"/>
		<path style="fill:#1D1D1B;" d="M389.1,15.3c-0.7,0-1.3,0.6-1.3,1.3v9.5c0.1,0.7,0.7,1.3,1.4,1.2c0.6-0.1,1.2-0.6,1.2-1.2v-9.5
			C390.4,15.9,389.8,15.3,389.1,15.3z"/>
		<path style="fill:#1D1D1B;" d="M404.2,15.3c-0.7,0-1.3,0.6-1.3,1.3v9.5c0.1,0.7,0.7,1.3,1.4,1.2c0.6-0.1,1.2-0.6,1.2-1.2v-9.5
			C405.6,15.9,405,15.3,404.2,15.3C404.3,15.3,404.3,15.3,404.2,15.3z"/>
		<path style="fill:#1D1D1B;" d="M411.4,15.9c0-1.7-0.3-3.4-0.9-5.1c-0.5-1.4-1.3-2.8-2.2-4c0.1-0.3,0.2-0.5,0.2-0.8
			c0-0.5-0.2-1-0.6-1.4c-6.2-6.2-16.3-6.2-22.6,0C385,5,384.8,5.5,384.8,6c0,0.3,0.1,0.6,0.2,0.8c-0.9,1.2-1.7,2.6-2.2,4
			c-0.6,1.6-0.9,3.3-0.9,5.1v5.4c0,1.3,0.5,2.6,1.4,3.5c0.7,0.7,1.7,1.2,2.7,1.4v-9.7c-1,0.2-1.9,0.6-2.6,1.3v-1.9
			c0-1.6,0.3-3.1,0.8-4.6c0.5-1.3,1.1-2.4,1.9-3.5c0.2,0.1,0.4,0.1,0.6,0.1c0.5,0,1-0.2,1.3-0.5l0.1-0.1c1.1-1.1,2.4-2,3.9-2.6
			c3-1.2,6.3-1.2,9.2,0c1.5,0.6,2.8,1.5,3.9,2.6l0,0c0.4,0.4,0.9,0.6,1.4,0.6c0.2,0,0.4,0,0.6-0.1c0.8,1.1,1.4,2.2,1.9,3.5
			c0.5,1.5,0.8,3,0.8,4.6v1.9c-0.7-0.7-1.6-1.1-2.6-1.3v9.7c2.4-0.4,4.2-2.4,4.1-4.9L411.4,15.9L411.4,15.9z"/>
		<path style="fill:#1D1D1B;" d="M389.1,15.3c-0.7,0-1.3,0.6-1.3,1.3v9.5c0.1,0.7,0.7,1.3,1.4,1.2c0.6-0.1,1.2-0.6,1.2-1.2v-9.5
			C390.4,15.9,389.8,15.3,389.1,15.3z"/>
		<path style="fill:#1D1D1B;" d="M404.2,15.3c-0.7,0-1.3,0.6-1.3,1.3v9.5c0.1,0.7,0.7,1.3,1.4,1.2c0.6-0.1,1.2-0.6,1.2-1.2v-9.5
			C405.6,15.9,405,15.3,404.2,15.3C404.3,15.3,404.3,15.3,404.2,15.3z"/>
		<path style="fill:#1D1D1B;" d="M411.4,15.9c0-1.7-0.3-3.4-0.9-5.1c-0.5-1.4-1.3-2.8-2.2-4c0.1-0.3,0.2-0.5,0.2-0.8
			c0-0.5-0.2-1-0.6-1.4c-6.2-6.2-16.3-6.2-22.6,0C385,5,384.8,5.5,384.8,6c0,0.3,0.1,0.6,0.2,0.8c-0.9,1.2-1.7,2.6-2.2,4
			c-0.6,1.6-0.9,3.3-0.9,5.1v5.4c0,1.3,0.5,2.6,1.4,3.5c0.7,0.7,1.7,1.2,2.7,1.4v-9.7c-1,0.2-1.9,0.6-2.6,1.3v-1.9
			c0-1.6,0.3-3.1,0.8-4.6c0.5-1.3,1.1-2.4,1.9-3.5c0.2,0.1,0.4,0.1,0.6,0.1c0.5,0,1-0.2,1.3-0.5l0.1-0.1c1.1-1.1,2.4-2,3.9-2.6
			c3-1.2,6.3-1.2,9.2,0c1.5,0.6,2.8,1.5,3.9,2.6l0,0c0.4,0.4,0.9,0.6,1.4,0.6c0.2,0,0.4,0,0.6-0.1c0.8,1.1,1.4,2.2,1.9,3.5
			c0.5,1.5,0.8,3,0.8,4.6v1.9c-0.7-0.7-1.6-1.1-2.6-1.3v9.7c2.4-0.4,4.2-2.4,4.1-4.9L411.4,15.9L411.4,15.9z"/>
		<path style="fill:#1D1D1B;" d="M389.1,15.3c-0.7,0-1.3,0.6-1.3,1.3v9.5c0.1,0.7,0.7,1.3,1.4,1.2c0.6-0.1,1.2-0.6,1.2-1.2v-9.5
			C390.4,15.9,389.8,15.3,389.1,15.3z"/>
		<path style="fill:#FFFFFF;" d="M404.2,15.3c-0.7,0-1.3,0.6-1.3,1.3v9.5c0.1,0.7,0.7,1.3,1.4,1.2c0.6-0.1,1.2-0.6,1.2-1.2v-9.5
			C405.6,15.9,405,15.3,404.2,15.3C404.3,15.3,404.3,15.3,404.2,15.3z"/>
		<path style="fill:#FFFFFF;" d="M411.4,15.9c0-1.7-0.3-3.4-0.9-5.1c-0.5-1.4-1.3-2.8-2.2-4c0.1-0.3,0.2-0.5,0.2-0.8
			c0-0.5-0.2-1-0.6-1.4c-6.2-6.2-16.3-6.2-22.6,0C385,5,384.8,5.5,384.8,6c0,0.3,0.1,0.6,0.2,0.8c-0.9,1.2-1.7,2.6-2.2,4
			c-0.6,1.6-0.9,3.3-0.9,5.1v5.4c0,1.3,0.5,2.6,1.4,3.5c0.7,0.7,1.7,1.2,2.7,1.4v-9.7c-1,0.2-1.9,0.6-2.6,1.3v-1.9
			c0-1.6,0.3-3.1,0.8-4.6c0.5-1.3,1.1-2.4,1.9-3.5c0.2,0.1,0.4,0.1,0.6,0.1c0.5,0,1-0.2,1.3-0.5l0.1-0.1c1.1-1.1,2.4-2,3.9-2.6
			c3-1.2,6.3-1.2,9.2,0c1.5,0.6,2.8,1.5,3.9,2.6l0,0c0.4,0.4,0.9,0.6,1.4,0.6c0.2,0,0.4,0,0.6-0.1c0.8,1.1,1.4,2.2,1.9,3.5
			c0.5,1.5,0.8,3,0.8,4.6v1.9c-0.7-0.7-1.6-1.1-2.6-1.3v9.7c2.4-0.4,4.2-2.4,4.1-4.9L411.4,15.9L411.4,15.9z"/>
		<path style="fill:#FFFFFF;" d="M389.1,15.3c-0.7,0-1.3,0.6-1.3,1.3v9.5c0.1,0.7,0.7,1.3,1.4,1.2c0.6-0.1,1.2-0.6,1.2-1.2v-9.5
			C390.4,15.9,389.8,15.3,389.1,15.3z"/>
	</g>
</g>
</svg>
